# This file uses centimeters as units for non-parametric coordinates.

v -13.283423 -0.011168 -0.901256
v -6.407761 -5.791504 3.493399
v -11.402043 7.252540 5.709263
v -4.526382 1.472203 10.103918
v -4.388792 10.970908 -0.372517
v 2.486869 5.190571 4.022137
v -6.270172 3.707200 -6.983036
v 0.605490 -2.073137 -2.588382
vt 0.375000 0.000000
vt 0.625000 0.000000
vt 0.375000 0.250000
vt 0.625000 0.250000
vt 0.375000 0.500000
vt 0.625000 0.500000
vt 0.375000 0.750000
vt 0.625000 0.750000
vt 0.375000 1.000000
vt 0.625000 1.000000
vt 0.875000 0.000000
vt 0.875000 0.250000
vt 0.125000 0.000000
vt 0.125000 0.250000
vn -0.701325 -0.371837 0.608178
vn -0.701325 -0.371837 0.608178
vn -0.701325 -0.371837 0.608178
vn -0.701325 -0.371837 0.608178
vn 0.188138 0.726371 0.661052
vn 0.188138 0.726371 0.661052
vn 0.188138 0.726371 0.661052
vn 0.188138 0.726371 0.661052
vn 0.701325 0.371837 -0.608178
vn 0.701325 0.371837 -0.608178
vn 0.701325 0.371837 -0.608178
vn 0.701325 0.371837 -0.608178
vn -0.188138 -0.726371 -0.661052
vn -0.188138 -0.726371 -0.661052
vn -0.188138 -0.726371 -0.661052
vn -0.188138 -0.726371 -0.661052
vn 0.687566 -0.578034 0.439465
vn 0.687566 -0.578034 0.439465
vn 0.687566 -0.578034 0.439465
vn 0.687566 -0.578034 0.439465
vn -0.687566 0.578034 -0.439465
vn -0.687566 0.578034 -0.439465
vn -0.687566 0.578034 -0.439465
vn -0.687566 0.578034 -0.439465
f 1/1/1 2/2/2 4/4/3 3/3/4
f 3/3/5 4/4/6 6/6/7 5/5/8
f 5/5/9 6/6/10 8/8/11 7/7/12
f 7/7/13 8/8/14 2/10/15 1/9/16
f 2/2/17 8/11/18 6/12/19 4/4/20
f 7/13/21 1/1/22 3/3/23 5/14/24
