# This file uses centimeters as units for non-parametric coordinates.

mtllib coplanar1.mtl
v -14.240695 -27.538380 -30.022400
v 3.538518 -27.538380 3.860033
v -41.030712 8.977673 -15.964806
v -23.251501 8.977673 17.917625
v 29.488319 74.959290 -52.968433
v 47.267532 74.959290 -19.086002
v 56.278339 38.443241 -67.026024
v 74.057556 38.443241 -33.143597
vt 0.375000 0.000000
vt 0.625000 0.000000
vt 0.375000 0.250000
vt 0.625000 0.250000
vt 0.375000 0.500000
vt 0.625000 0.500000
vt 0.375000 0.750000
vt 0.625000 0.750000
vt 0.375000 1.000000
vt 0.625000 1.000000
vt 0.875000 0.000000
vt 0.875000 0.250000
vn -0.681868 -0.637994 0.357798
vn -0.681868 -0.637994 0.357798
vn -0.681868 -0.637994 0.357798
vn -0.681868 -0.637994 0.357798
vn -0.681868 -0.637994 0.357798
vn -0.681868 -0.637994 0.357798
vn -0.564941 0.770041 0.296443
vn -0.564941 0.770041 0.296443
vn -0.564941 0.770041 0.296443
vn -0.564941 0.770041 0.296443
vn -0.564941 0.770041 0.296443
vn -0.564941 0.770041 0.296443
vn 0.681868 0.637994 -0.357798
vn 0.681868 0.637994 -0.357798
vn 0.681868 0.637994 -0.357798
vn 0.681868 0.637994 -0.357798
vn 0.681868 0.637994 -0.357798
vn 0.681868 0.637994 -0.357798
vn 0.564941 -0.770041 -0.296443
vn 0.564941 -0.770041 -0.296443
vn 0.564941 -0.770041 -0.296443
vn 0.564941 -0.770041 -0.296443
vn 0.564941 -0.770041 -0.296443
vn 0.564941 -0.770041 -0.296443
vn 0.464648 0.000000 0.885495
vn 0.464648 0.000000 0.885495
vn 0.464648 0.000000 0.885495
vn 0.464648 0.000000 0.885495
vn 0.464648 0.000000 0.885495
vn 0.464648 0.000000 0.885495
vn -0.464648 0.000000 -0.885495
vn -0.464648 0.000000 -0.885495
vn -0.464648 0.000000 -0.885495
vn -0.464648 0.000000 -0.885495
s off
usemtl coplanar0_initialShadingGroup
f 1/1/1 2/2/2 3/3/3
f 3/3/4 2/2/5 4/4/6
f 3/3/7 4/4/8 5/5/9
f 5/5/10 4/4/11 6/6/12
f 5/5/13 6/6/14 7/7/15
f 7/7/16 6/6/17 8/8/18
f 7/7/19 8/8/20 1/9/21
f 1/9/22 8/8/23 2/10/24
f 2/2/25 8/11/26 4/4/27
f 4/4/28 8/11/29 6/12/30
f 1/1/31 3/3/32 5/5/33 7/7/34
