# This file uses centimeters as units for non-parametric coordinates.

mtllib plane1.mtl
v -18.583703 22.605542 2.696468
v -18.355866 14.236400 6.758484
v -18.128029 5.867263 10.820497
v -17.900194 -2.501875 14.882512
v -17.672358 -10.871013 18.944526
v -7.046091 19.671909 -3.994954
v -6.818256 11.302771 0.067061
v -6.590421 2.933633 4.129076
v -6.362581 -5.435508 8.191089
v -6.134747 -13.804646 12.253104
v 4.491522 16.738276 -10.686377
v 4.719357 8.369137 -6.624362
v 4.947192 -0.000001 -2.562346
v 5.175026 -8.369137 1.499668
v 5.402862 -16.738277 5.561684
v 16.029135 13.804643 -17.377800
v 16.256968 5.435505 -13.315784
v 16.484804 -2.933633 -9.253769
v 16.712639 -11.302771 -5.191755
v 16.940476 -19.671907 -1.129742
v 27.566743 10.871012 -24.069220
v 27.794576 2.501875 -20.007205
v 28.022410 -5.867263 -15.945189
v 28.250251 -14.236406 -11.883176
v 28.478086 -22.605542 -7.821162
vt 0.000000 0.000000
vt 0.170352 0.000000
vt 0.170352 0.250000
vt 0.000000 0.250000
vt 0.340705 0.000000
vt 0.340705 0.250000
vt 0.511057 0.000000
vt 0.511057 0.250000
vt 0.681409 0.000000
vt 0.681409 0.250000
vt 0.170352 0.500000
vt 0.000000 0.500000
vt 0.340705 0.500000
vt 0.511057 0.500000
vt 0.681409 0.500000
vt 0.170352 0.750000
vt 0.000000 0.750000
vt 0.340705 0.750000
vt 0.511057 0.750000
vt 0.681409 0.750000
vt 0.170352 1.000000
vt 0.000000 1.000000
vt 0.340705 1.000000
vt 0.511057 1.000000
vt 0.681409 1.000000
vn -0.534444 -0.380784 -0.754568
vn -0.534444 -0.380784 -0.754568
vn -0.534444 -0.380784 -0.754568
vn -0.534444 -0.380784 -0.754568
vn -0.534444 -0.380784 -0.754568
vn -0.534444 -0.380784 -0.754568
vn -0.534444 -0.380784 -0.754568
vn -0.534444 -0.380784 -0.754568
vn -0.534444 -0.380784 -0.754568
vn -0.534444 -0.380784 -0.754568
vn -0.534444 -0.380784 -0.754568
vn -0.534444 -0.380784 -0.754568
vn -0.534444 -0.380784 -0.754568
vn -0.534444 -0.380784 -0.754568
vn -0.534444 -0.380784 -0.754568
vn -0.534444 -0.380784 -0.754568
vn -0.534444 -0.380784 -0.754568
vn -0.534444 -0.380784 -0.754568
vn -0.534444 -0.380784 -0.754568
vn -0.534444 -0.380784 -0.754568
vn -0.534444 -0.380784 -0.754568
vn -0.534444 -0.380784 -0.754568
vn -0.534444 -0.380784 -0.754568
vn -0.534444 -0.380784 -0.754568
vn -0.534444 -0.380784 -0.754568
vn -0.534444 -0.380784 -0.754568
vn -0.534444 -0.380784 -0.754568
vn -0.534444 -0.380784 -0.754568
vn -0.534444 -0.380784 -0.754568
vn -0.534444 -0.380784 -0.754568
vn -0.534444 -0.380784 -0.754568
vn -0.534444 -0.380784 -0.754568
vn -0.534444 -0.380784 -0.754568
vn -0.534444 -0.380784 -0.754568
vn -0.534444 -0.380784 -0.754568
vn -0.534444 -0.380784 -0.754568
vn -0.534444 -0.380784 -0.754568
vn -0.534444 -0.380784 -0.754568
vn -0.534444 -0.380784 -0.754568
vn -0.534444 -0.380784 -0.754568
vn -0.534444 -0.380784 -0.754568
vn -0.534444 -0.380784 -0.754568
vn -0.534444 -0.380784 -0.754568
vn -0.534444 -0.380784 -0.754568
vn -0.534444 -0.380784 -0.754568
vn -0.534444 -0.380784 -0.754568
vn -0.534444 -0.380784 -0.754568
vn -0.534444 -0.380784 -0.754568
vn -0.534444 -0.380784 -0.754568
vn -0.534444 -0.380784 -0.754568
vn -0.534444 -0.380784 -0.754568
vn -0.534444 -0.380784 -0.754568
vn -0.534444 -0.380784 -0.754568
vn -0.534444 -0.380784 -0.754568
vn -0.534444 -0.380784 -0.754568
vn -0.534444 -0.380784 -0.754568
vn -0.534444 -0.380784 -0.754568
vn -0.534444 -0.380784 -0.754568
vn -0.534444 -0.380784 -0.754568
vn -0.534444 -0.380784 -0.754568
vn -0.534444 -0.380784 -0.754568
vn -0.534444 -0.380784 -0.754568
vn -0.534444 -0.380784 -0.754568
vn -0.534444 -0.380784 -0.754568
s off
usemtl plane0_initialShadingGroup
f 1/1/1 6/4/2 7/3/3 2/2/4
f 2/2/5 7/3/6 8/6/7 3/5/8
f 3/5/9 8/6/10 9/8/11 4/7/12
f 4/7/13 9/8/14 10/10/15 5/9/16
f 6/4/17 11/12/18 12/11/19 7/3/20
f 7/3/21 12/11/22 13/13/23 8/6/24
f 8/6/25 13/13/26 14/14/27 9/8/28
f 9/8/29 14/14/30 15/15/31 10/10/32
f 11/12/33 16/17/34 17/16/35 12/11/36
f 12/11/37 17/16/38 18/18/39 13/13/40
f 13/13/41 18/18/42 19/19/43 14/14/44
f 14/14/45 19/19/46 20/20/47 15/15/48
f 16/17/49 21/22/50 22/21/51 17/16/52
f 17/16/53 22/21/54 23/23/55 18/18/56
f 18/18/57 23/23/58 24/24/59 19/19/60
f 19/19/61 24/24/62 25/25/63 20/20/64
