# This file uses centimeters as units for non-parametric coordinates.

mtllib plane1.mtl
v 0.615639 -0.000000 3.794412
v 2.781415 -0.000000 3.794412
v 4.947192 -0.000000 3.794412
v 7.112969 -0.000000 3.794412
v 9.278746 -0.000000 3.794412
v 0.615639 -0.000000 0.616032
v 2.781415 -0.000000 0.616032
v 4.947192 -0.000000 0.616032
v 7.112969 -0.000000 0.616032
v 9.278746 -0.000000 0.616032
v 0.615639 0.000000 -2.562347
v 2.781415 0.000000 -2.562347
v 4.947192 0.000000 -2.562347
v 7.112969 0.000000 -2.562347
v 9.278746 0.000000 -2.562347
v 0.615639 0.000000 -5.740727
v 2.781415 0.000000 -5.740727
v 4.947192 0.000000 -5.740727
v 7.112969 0.000000 -5.740727
v 9.278746 0.000000 -5.740727
v 0.615639 0.000000 -8.919106
v 2.781415 0.000000 -8.919106
v 4.947192 0.000000 -8.919106
v 7.112969 0.000000 -8.919106
v 9.278746 0.000000 -8.919106
vt 0.000000 0.000000
vt 0.170352 0.000000
vt 0.340705 0.000000
vt 0.511057 0.000000
vt 0.681409 0.000000
vt 0.000000 0.250000
vt 0.170352 0.250000
vt 0.340705 0.250000
vt 0.511057 0.250000
vt 0.681409 0.250000
vt 0.000000 0.500000
vt 0.170352 0.500000
vt 0.340705 0.500000
vt 0.511057 0.500000
vt 0.681409 0.500000
vt 0.000000 0.750000
vt 0.170352 0.750000
vt 0.340705 0.750000
vt 0.511057 0.750000
vt 0.681409 0.750000
vt 0.000000 1.000000
vt 0.170352 1.000000
vt 0.340705 1.000000
vt 0.511057 1.000000
vt 0.681409 1.000000
vn 0.000000 1.000000 0.000000
vn 0.000000 1.000000 0.000000
vn 0.000000 1.000000 0.000000
vn 0.000000 1.000000 0.000000
vn 0.000000 1.000000 0.000000
vn 0.000000 1.000000 0.000000
vn 0.000000 1.000000 0.000000
vn 0.000000 1.000000 0.000000
vn 0.000000 1.000000 0.000000
vn 0.000000 1.000000 0.000000
vn 0.000000 1.000000 0.000000
vn 0.000000 1.000000 0.000000
vn 0.000000 1.000000 0.000000
vn 0.000000 1.000000 0.000000
vn 0.000000 1.000000 0.000000
vn 0.000000 1.000000 0.000000
vn 0.000000 1.000000 0.000000
vn 0.000000 1.000000 0.000000
vn 0.000000 1.000000 0.000000
vn 0.000000 1.000000 0.000000
vn 0.000000 1.000000 0.000000
vn 0.000000 1.000000 0.000000
vn 0.000000 1.000000 0.000000
vn 0.000000 1.000000 0.000000
vn 0.000000 1.000000 0.000000
s 1
usemtl initialShadingGroup
f 1/1/1 2/2/2 7/7/3 6/6/4
f 2/2/2 3/3/5 8/8/6 7/7/3
f 3/3/5 4/4/7 9/9/8 8/8/6
f 4/4/7 5/5/9 10/10/10 9/9/8
f 6/6/4 7/7/3 12/12/11 11/11/12
f 7/7/3 8/8/6 13/13/13 12/12/11
f 8/8/6 9/9/8 14/14/14 13/13/13
f 9/9/8 10/10/10 15/15/15 14/14/14
f 11/11/12 12/12/11 17/17/16 16/16/17
f 12/12/11 13/13/13 18/18/18 17/17/16
f 13/13/13 14/14/14 19/19/19 18/18/18
f 14/14/14 15/15/15 20/20/20 19/19/19
f 16/16/17 17/17/16 22/22/21 21/21/22
f 17/17/16 18/18/18 23/23/23 22/22/21
f 18/18/18 19/19/19 24/24/24 23/23/23
f 19/19/19 20/20/20 25/25/25 24/24/24
