# This file uses centimeters as units for non-parametric coordinates.

mtllib plane0.mtl
v -1.854524 -0.000000 1.030341
v 0.059764 -0.000000 2.043304
v 1.974051 -0.000000 3.056266
v 3.888338 -0.000000 4.069229
v 5.802625 -0.000000 5.082192
v -0.367953 -0.000000 -1.778966
v 1.546334 -0.000000 -0.766003
v 3.460621 -0.000000 0.246960
v 5.374909 -0.000000 1.259922
v 7.289196 -0.000000 2.272885
v 1.118618 0.000000 -4.588273
v 3.032905 0.000000 -3.575310
v 4.947192 0.000000 -2.562347
v 6.861479 0.000000 -1.549384
v 8.775766 0.000000 -0.536421
v 2.605189 0.000000 -7.397580
v 4.519476 0.000000 -6.384617
v 6.433763 0.000000 -5.371654
v 8.348050 0.000000 -4.358691
v 10.262337 0.000000 -3.345729
v 4.091759 0.000000 -10.206886
v 6.006046 0.000000 -9.193923
v 7.920333 0.000000 -8.180960
v 9.834621 0.000000 -7.167998
v 11.748908 0.000000 -6.155035
vt 0.000000 0.000000
vt 0.170352 0.000000
vt 0.340705 0.000000
vt 0.511057 0.000000
vt 0.681409 0.000000
vt 0.000000 0.250000
vt 0.170352 0.250000
vt 0.340705 0.250000
vt 0.511057 0.250000
vt 0.681409 0.250000
vt 0.000000 0.500000
vt 0.170352 0.500000
vt 0.340705 0.500000
vt 0.511057 0.500000
vt 0.681409 0.500000
vt 0.000000 0.750000
vt 0.170352 0.750000
vt 0.340705 0.750000
vt 0.511057 0.750000
vt 0.681409 0.750000
vt 0.000000 1.000000
vt 0.170352 1.000000
vt 0.340705 1.000000
vt 0.511057 1.000000
vt 0.681409 1.000000
vn -0.000000 1.000000 0.000000
vn -0.000000 1.000000 0.000000
vn -0.000000 1.000000 0.000000
vn -0.000000 1.000000 0.000000
vn -0.000000 1.000000 0.000000
vn -0.000000 1.000000 0.000000
vn -0.000000 1.000000 0.000000
vn -0.000000 1.000000 0.000000
vn -0.000000 1.000000 0.000000
vn -0.000000 1.000000 0.000000
vn -0.000000 1.000000 0.000000
vn -0.000000 1.000000 0.000000
vn -0.000000 1.000000 0.000000
vn -0.000000 1.000000 0.000000
vn -0.000000 1.000000 0.000000
vn -0.000000 1.000000 0.000000
vn -0.000000 1.000000 0.000000
vn -0.000000 1.000000 0.000000
vn -0.000000 1.000000 0.000000
vn -0.000000 1.000000 0.000000
vn -0.000000 1.000000 0.000000
vn -0.000000 1.000000 0.000000
vn -0.000000 1.000000 0.000000
vn -0.000000 1.000000 0.000000
vn -0.000000 1.000000 0.000000
s 1
usemtl initialShadingGroup
f 1/1/1 2/2/2 7/7/3 6/6/4
f 2/2/2 3/3/5 8/8/6 7/7/3
f 3/3/5 4/4/7 9/9/8 8/8/6
f 4/4/7 5/5/9 10/10/10 9/9/8
f 6/6/4 7/7/3 12/12/11 11/11/12
f 7/7/3 8/8/6 13/13/13 12/12/11
f 8/8/6 9/9/8 14/14/14 13/13/13
f 9/9/8 10/10/10 15/15/15 14/14/14
f 11/11/12 12/12/11 17/17/16 16/16/17
f 12/12/11 13/13/13 18/18/18 17/17/16
f 13/13/13 14/14/14 19/19/19 18/18/18
f 14/14/14 15/15/15 20/20/20 19/19/19
f 16/16/17 17/17/16 22/22/21 21/21/22
f 17/17/16 18/18/18 23/23/23 22/22/21
f 18/18/18 19/19/19 24/24/24 23/23/23
f 19/19/19 20/20/20 25/25/25 24/24/24
